<?xml version="1.0" encoding="utf-8"?>
<!-- Generator: Adobe Illustrator 18.0.0, SVG Export Plug-In . SVG Version: 6.00 Build 0)  -->
<!DOCTYPE svg PUBLIC "-//W3C//DTD SVG 1.1//EN" "http://www.w3.org/Graphics/SVG/1.1/DTD/svg11.dtd">
<svg version="1.1" id="图层_1" xmlns="http://www.w3.org/2000/svg" xmlns:xlink="http://www.w3.org/1999/xlink" x="0px" y="0px"
	 viewBox="0 0 278.5 278.5" enable-background="new 0 0 278.5 278.5" xml:space="preserve">
<g>
	<g>
		<rect x="40.8" y="40.8" transform="matrix(0.7071 -0.7071 0.7071 0.7071 -57.6735 139.236)" width="196.9" height="196.9"/>
	</g>
	
		<rect x="45.4" y="45.4" transform="matrix(0.7071 -0.7071 0.7071 0.7071 -57.6735 139.236)" fill="#FFB957" width="187.6" height="187.6"/>
	<g>
		<path d="M103.7,151.1h-9.6v19.6h-9.3v-19.6H49.7v-6.2L83,95.2h11.1v48.3h9.6V151.1z M84.8,143.6V112c0-2.2,0.1-4.8,0.2-7.7h-0.2
			c-0.5,1.2-1.4,3.2-2.9,5.8l-22.5,33.6H84.8z"/>
		<path d="M111.7,134.5c0-13.3,2.2-23.4,6.6-30.2c4.4-6.8,10.8-10.3,19.2-10.3c16,0,24,12.9,24,38.7c0,12.7-2.2,22.5-6.7,29.2
			c-4.5,6.7-10.8,10.1-18.9,10.1c-7.7,0-13.6-3.2-17.8-9.6C113.8,156,111.7,146.7,111.7,134.5z M121.5,134c0,20,5.1,30.1,15.2,30.1
			c10,0,15-10.2,15-30.5c0-21.1-4.9-31.6-14.7-31.6C126.6,101.9,121.5,112.6,121.5,134z"/>
		<path d="M220.7,151.1h-9.6v19.6h-9.3v-19.6h-35.2v-6.2L200,95.2h11.1v48.3h9.6V151.1z M201.8,143.6V112c0-2.2,0.1-4.8,0.2-7.7
			h-0.2c-0.5,1.2-1.4,3.2-2.9,5.8l-22.5,33.6H201.8z"/>
	</g>
</g>
</svg>
